<?xml version="1.0" encoding="utf-8"?>
<!-- Generator: Adobe Illustrator 23.0.6, SVG Export Plug-In . SVG Version: 6.00 Build 0)  -->
<svg version="1.1" id="Layer_1" xmlns="http://www.w3.org/2000/svg" xmlns:xlink="http://www.w3.org/1999/xlink" x="0px" y="0px"
	 viewBox="0 0 512 512" style="enable-background:new 0 0 512 512;" xml:space="preserve">
<style type="text/css">
	.st0{fill:#353535;stroke:#353535;stroke-width:9;stroke-miterlimit:10;}
</style>
<g>
	<path class="st0" d="M364.1,302c-6.2,0-12.3,0.5-18.3,1.6c-14.8-22.4-34.9-40.9-58.2-53.8c35.1-25,58-65.9,58-112.2
		C345.6,61.7,283.9,0,208,0S70.5,61.7,70.5,137.6c0,46.2,22.9,87.2,58,112.2c-52.1,28.7-85.6,83.8-85.6,144.7v72.1
		c0,8.3,6.7,15,15,15h232.4c19,18.8,45.1,30.5,73.9,30.5c57.9,0,105-47.1,105-105S422,302,364.1,302L364.1,302z M190,274
		c5.9,0.8,12,1.2,18.1,1.2s12.2-0.4,18.1-1.2v13.9c0,10-8.1,18.1-18.1,18.1s-18.1-8.1-18.1-18.1V274z M208,30
		c43.4,0,81,25.9,97.9,63h-39.8l-11.9-16.4c-2.4-3.3-6.1-5.5-10.2-6c-4.1-0.5-8.2,0.6-11.4,3.2L208.9,93h-98.7
		C127.1,55.9,164.6,30,208,30z M100.5,137.6c0-4.9,0.3-9.8,1-14.5h112.7c3.4,0,6.7-1.2,9.4-3.3l15.7-12.7l7.2,9.8
		c2.8,3.9,7.3,6.2,12.1,6.2h56.1c0.6,4.8,1,9.6,1,14.5c0,59.3-48.3,107.6-107.6,107.6S100.5,196.9,100.5,137.6L100.5,137.6z
		 M72.9,394.4c0-56.1,34.8-106.2,87.1-126.3v19.8c0,26.5,21.6,48.1,48.1,48.1s48.1-21.6,48.1-48.1v-19.8c23.9,9.2,44.7,25,60.1,45.5
		c-33.9,17.4-57.1,52.8-57.1,93.4c0,15.9,3.6,31,9.9,44.5H72.9V394.4z M364.1,482c-41.4,0-75-33.6-75-75s33.6-75,75-75
		s75,33.6,75,75S405.5,482,364.1,482z"/>
	<path class="st0" d="M394.1,392h-60c-8.3,0-15,6.7-15,15s6.7,15,15,15h60c8.3,0,15-6.7,15-15S402.4,392,394.1,392z"/>
</g>
</svg>
