<svg id="_1" data-name="1" xmlns="http://www.w3.org/2000/svg" viewBox="0 0 512.01 469.33"><defs><style>.cls-1{fill:#ff3535;}</style></defs><title>image-gallery</title><path class="cls-1" d="M372.33,512a42.6,42.6,0,0,1-10.88-1.41L31.57,422.25A43.06,43.06,0,0,1,1.41,370L43,214.85a10.67,10.67,0,0,1,20.61,5.5L22,375.45a21.64,21.64,0,0,0,15.14,26.21L366.93,490a21.24,21.24,0,0,0,26-15l16.66-61.73a10.67,10.67,0,1,1,20.61,5.54l-16.64,61.66A42.63,42.63,0,0,1,372.33,512Z" transform="translate(-0.01 -42.67)"/><path class="cls-1" d="M469.33,384H128a42.72,42.72,0,0,1-42.67-42.67v-256A42.71,42.71,0,0,1,128,42.67H469.33A42.71,42.71,0,0,1,512,85.33v256A42.72,42.72,0,0,1,469.33,384ZM128,64a21.37,21.37,0,0,0-21.33,21.33v256A21.37,21.37,0,0,0,128,362.67H469.33a21.37,21.37,0,0,0,21.34-21.34v-256A21.37,21.37,0,0,0,469.33,64Z" transform="translate(-0.01 -42.67)"/><path class="cls-1" d="M192,192a42.67,42.67,0,1,1,42.67-42.67A42.72,42.72,0,0,1,192,192Zm0-64a21.34,21.34,0,1,0,21.33,21.33A21.37,21.37,0,0,0,192,128Z" transform="translate(-0.01 -42.67)"/><path class="cls-1" d="M97.49,361.17A10.65,10.65,0,0,1,89.94,343L190.7,242.22c12.07-12.08,33.17-12.08,45.25,0l30,30,83-99.62a32,32,0,0,1,24.36-11.52h.24a32,32,0,0,1,24.3,11.15L509.44,302.4a10.67,10.67,0,1,1-16.19,13.89L381.67,186.11a10.52,10.52,0,0,0-8.1-3.71c-2.22-.19-6.12,1.34-8.19,3.84L274.86,294.85a10.66,10.66,0,0,1-7.72,3.82,10.29,10.29,0,0,1-8-3.12L220.86,257.3a11,11,0,0,0-15.08,0L105,358.06a10.62,10.62,0,0,1-7.53,3.11Z" transform="translate(-0.01 -42.67)"/></svg>