<?xml version="1.0" encoding="utf-8"?>
<!-- Generator: Adobe Illustrator 23.0.6, SVG Export Plug-In . SVG Version: 6.00 Build 0)  -->
<svg version="1.1" id="Capa_1" xmlns="http://www.w3.org/2000/svg" xmlns:xlink="http://www.w3.org/1999/xlink" x="0px" y="0px"
	 viewBox="0 0 512 512" style="enable-background:new 0 0 512 512;" xml:space="preserve">
<style type="text/css">
	.st0{fill:#F28C8C;}
	.st1{fill:#FF3535;}
	.st2{fill:#ECEFF1;}
</style>
<rect x="10.7" y="234.7" class="st0" width="149.3" height="256"/>
<path class="st1" d="M160,501.3H10.7c-5.9,0-10.7-4.8-10.7-10.7v-256c0-5.9,4.8-10.7,10.7-10.7H160c5.9,0,10.7,4.8,10.7,10.7v256
	C170.7,496.6,165.9,501.3,160,501.3z M21.3,480h128V245.3h-128C21.3,245.3,21.3,480,21.3,480z"/>
<path class="st2" d="M160,448c18.6,13.6,41,21.1,64,21.3h197.3c20.6,0.1,37.3-16.5,37.4-37.1c0-10.3-4.2-20.2-11.8-27.3
	c20.4-2.2,35.1-20.5,32.9-40.9c-1-8.8-5.1-17.1-11.6-23.1c20.4-2.2,35.1-20.5,32.9-40.8c-1.3-12.5-8.9-23.5-20.1-29.2
	c20-12.4,26.2-38.7,13.7-58.8c-7.8-12.5-21.4-20.1-36.1-20.2H309.3c11.7-30.8,18.9-63.1,21.3-96c0-40-34.7-74.7-53.3-74.7
	c-11.5,0.2-22.7,3.9-32,10.7v74.7l-64,138.7L160,256V448z"/>
<path class="st1" d="M421.3,480H224c-25.9-0.2-51-8.8-71.6-24.4c-2-2-3.1-4.7-3.1-7.6V256c0-4,2.3-7.7,5.9-9.5l18-9l61.5-133.1V32
	c0-3.2,1.5-6.3,4-8.3c11.2-8.2,24.7-12.8,38.7-13c24.7,0,64,39.1,64,85.3c-1.6,29.1-7.4,57.8-17.1,85.3h134.4
	c29.5,0,53.3,23.9,53.3,53.3c0,13.2-4.9,26-13.9,35.8c18.6,18.7,18.5,48.9-0.2,67.5c-3.6,3.6-7.7,6.5-12.3,8.8
	c3.3,6.6,5,13.9,5,21.3c0,18.1-10.2,34.6-26.3,42.7c3.3,6.6,5,13.9,5,21.3C469.3,458.5,447.8,480,421.3,480z M170.7,443.1
	c16.2,9.7,34.5,15,53.3,15.6h197.3c14.7,0,26.7-11.9,26.7-26.7c0-7.3-3.1-14.3-8.4-19.3c-4.3-4-4.5-10.8-0.5-15.1
	c1.7-1.8,4.1-3,6.6-3.3c14.5-1.5,25-14.5,23.5-29.1c-0.7-6.3-3.6-12.2-8.3-16.6c-4.3-4-4.5-10.8-0.5-15.1c1.7-1.8,4.1-3,6.6-3.3
	c14.5-1.5,25-14.5,23.5-29.1c-0.9-9-6.4-16.9-14.5-20.9c-5.2-2.7-7.3-9.1-4.6-14.4c0.9-1.7,2.2-3.2,3.9-4.2
	c15-9.3,19.6-29.1,10.2-44.1c-5.8-9.3-15.9-15-26.9-15.1H309.3c-5.9,0-10.7-4.8-10.7-10.7c0-1.3,0.2-2.6,0.7-3.8
	c11.2-29.6,18.2-60.6,20.6-92.2c0-34.9-31-64-42.7-64c-7.5,0.1-14.8,2.1-21.3,5.8v68.9c0,1.5-0.3,3.1-1,4.5l-64,138.7
	c-1,2.2-2.7,4-4.9,5.1l-15.4,7.7L170.7,443.1L170.7,443.1z"/>
</svg>
